<?xml version="1.0" encoding="UTF-8" standalone="no"?>
<!-- Created with Inkscape (http://www.inkscape.org/) -->

<svg
   width="31.999998"
   height="31.999998"
   viewBox="0 0 8.4666661 8.4666661"
   version="1.1"
   id="svg1253"
   inkscape:export-filename="icon.png"
   inkscape:export-xdpi="96"
   inkscape:export-ydpi="96"
   xmlns:inkscape="http://www.inkscape.org/namespaces/inkscape"
   xmlns:sodipodi="http://sodipodi.sourceforge.net/DTD/sodipodi-0.dtd"
   xmlns="http://www.w3.org/2000/svg"
   xmlns:svg="http://www.w3.org/2000/svg">
  <sodipodi:namedview
     id="namedview1255"
     pagecolor="#505050"
     bordercolor="#eeeeee"
     borderopacity="1"
     inkscape:showpageshadow="0"
     inkscape:pageopacity="0"
     inkscape:pagecheckerboard="0"
     inkscape:deskcolor="#505050"
     inkscape:document-units="px"
     showgrid="false"
     showguides="true">
    <sodipodi:guide
       position="0.72482142,4.4359518"
       orientation="1,0"
       id="guide4852"
       inkscape:locked="false" />
    <sodipodi:guide
       position="1.3082143,3.9055947"
       orientation="1,0"
       id="guide4854"
       inkscape:locked="false" />
    <sodipodi:guide
       position="1.9092857,4.595059"
       orientation="1,0"
       id="guide5582"
       inkscape:locked="false" />
    <sodipodi:guide
       position="2.3407444,1.6975708"
       orientation="0,-1"
       id="guide7095"
       inkscape:locked="false" />
    <sodipodi:guide
       position="1.743839,5.8665335"
       orientation="1,0"
       id="guide7097"
       inkscape:locked="false" />
    <sodipodi:guide
       position="2.0949107,6.8026706"
       orientation="1,0"
       id="guide7099"
       inkscape:locked="false" />
    <sodipodi:guide
       position="1.2422509,1.8303901"
       orientation="0,-1"
       id="guide7107"
       inkscape:locked="false" />
  </sodipodi:namedview>
  <defs
     id="defs1250" />
  <g
     inkscape:label="Capa 1"
     inkscape:groupmode="layer"
     id="layer1">
    <path
       id="rect1426"
       style="font-variation-settings:'wght' 700;fill:#141e4f;fill-opacity:1;stroke-width:1.22394;stroke-linecap:square;paint-order:fill markers stroke"
       d="M 0.44906819,1.0226766 C 0.20542535,1.0348625 0.01240234,1.2353198 0.01240234,1.4820801 v 5.2901163 c 0,0.254672 0.20524812,0.4599202 0.45992025,0.4599202 H 7.994344 c 0.2546723,0 0.4599203,-0.2052482 0.4599203,-0.4599202 V 1.4820801 c 0,-0.2546722 -0.205248,-0.4594035 -0.4599203,-0.4594035 H 0.47232259 c -0.005969,0 -0.0116574,-2.229e-4 -0.01757,0 -0.001925,7.26e-5 -0.003766,-9.6e-5 -0.005684,0 z M 0.73380533,1.2934611 A 0.1735685,0.1735685 0 0 1 0.90743814,1.4670939 0.1735685,0.1735685 0 0 1 0.73380533,1.6407267 0.1735685,0.1735685 0 0 1 0.56017252,1.4670939 0.1735685,0.1735685 0 0 1 0.73380533,1.2934611 Z m 0.59582927,0 A 0.1735685,0.1735685 0 0 1 1.5032674,1.4670939 0.1735685,0.1735685 0 0 1 1.3296346,1.6407267 0.1735685,0.1735685 0 0 1 1.1560018,1.4670939 0.1735685,0.1735685 0 0 1 1.3296346,1.2934611 Z m 0.5901448,0 A 0.1735685,0.1735685 0 0 1 2.0934123,1.4670939 0.1735685,0.1735685 0 0 1 1.9197794,1.6407267 0.1735685,0.1735685 0 0 1 1.7466634,1.4670939 0.1735685,0.1735685 0 0 1 1.9197794,1.2934611 Z M 0.56740722,1.95802 c 0.00529,-1.998e-4 0.0106796,0 0.0160197,0 H 7.8832397 c 0.2278447,0 0.4113444,0.1834997 0.4113444,0.4113444 v 4.2038777 c 0,0.2278448 -0.1834997,0.4113444 -0.4113444,0.4113444 H 0.58342692 c -0.22784469,0 -0.4113444,-0.1834996 -0.4113444,-0.4113444 V 2.3693644 c 0,-0.2225046 0.1749248,-0.4030191 0.3953247,-0.4113444 z" />
  </g>
  <g
     inkscape:groupmode="layer"
     id="layer2"
     inkscape:label="Capa 2">
    <rect
       style="font-variation-settings:'wght' 700;fill:#141e4f;fill-opacity:1;stroke-width:1.5755;stroke-linecap:square;paint-order:fill markers stroke"
       id="rect7089"
       width="2.2566159"
       height="0.31821427"
       x="2.4838393"
       y="2.305629"
       ry="0.15910713" />
    <rect
       style="font-variation-settings:'wght' 700;fill:#141e4f;fill-opacity:1;stroke-width:1.02942;stroke-linecap:square;paint-order:fill markers stroke"
       id="rect7093"
       width="0.35357144"
       height="4.3310437"
       x="1.7457589"
       y="2.305629"
       ry="0.16377896" />
    <rect
       style="font-variation-settings:'wght' 700;fill:#141e4f;fill-opacity:1;stroke-width:1.269;stroke-linecap:square;paint-order:fill markers stroke"
       id="rect7101"
       width="0.58560264"
       height="0.31821427"
       x="0.72261161"
       y="2.305629"
       ry="0.15910713" />
    <rect
       style="font-variation-settings:'wght' 700;fill:#141e4f;fill-opacity:1;stroke-width:1.269;stroke-linecap:square;paint-order:fill markers stroke"
       id="rect7103"
       width="0.58560264"
       height="0.31821427"
       x="0.72261161"
       y="2.8183076"
       ry="0.15910713" />
    <rect
       style="font-variation-settings:'wght' 700;fill:#141e4f;fill-opacity:1;stroke-width:1.269;stroke-linecap:square;paint-order:fill markers stroke"
       id="rect7109"
       width="0.58560264"
       height="0.31821427"
       x="0.72261161"
       y="3.3244309"
       ry="0.15910713" />
    <rect
       style="font-variation-settings:'wght' 700;fill:#141e4f;fill-opacity:1;stroke-width:1.269;stroke-linecap:square;paint-order:fill markers stroke"
       id="rect7111"
       width="0.58560264"
       height="0.31821427"
       x="0.72261161"
       y="3.8371096"
       ry="0.15910713" />
    <rect
       style="font-variation-settings:'wght' 700;fill:#141e4f;fill-opacity:1;stroke-width:1.269;stroke-linecap:square;paint-order:fill markers stroke"
       id="rect7113"
       width="0.58560264"
       height="0.31821427"
       x="0.72261161"
       y="4.7866917"
       ry="0.15910713" />
    <rect
       style="font-variation-settings:'wght' 700;fill:#141e4f;fill-opacity:1;stroke-width:1.269;stroke-linecap:square;paint-order:fill markers stroke"
       id="rect7115"
       width="0.58560264"
       height="0.31821427"
       x="0.72261161"
       y="5.2993703"
       ry="0.15910713" />
    <rect
       style="font-variation-settings:'wght' 700;fill:#141e4f;fill-opacity:1;stroke-width:1.269;stroke-linecap:square;paint-order:fill markers stroke"
       id="rect7117"
       width="0.58560264"
       height="0.31821427"
       x="0.72261161"
       y="5.8054938"
       ry="0.15910713" />
    <rect
       style="font-variation-settings:'wght' 700;fill:#141e4f;fill-opacity:1;stroke-width:1.269;stroke-linecap:square;paint-order:fill markers stroke"
       id="rect7119"
       width="0.58560264"
       height="0.31821427"
       x="0.72261161"
       y="6.3181725"
       ry="0.15910713" />
    <rect
       style="font-variation-settings:'wght' 700;fill:#141e4f;fill-opacity:1;stroke-width:1.269;stroke-linecap:square;paint-order:fill markers stroke"
       id="rect7121"
       width="0.58560264"
       height="0.31821427"
       x="0.72261161"
       y="4.3058834"
       ry="0.15910713" />
    <rect
       style="font-variation-settings:'wght' 700;fill:#141e4f;fill-opacity:1;stroke-width:1.5755;stroke-linecap:square;paint-order:fill markers stroke"
       id="rect7125"
       width="2.2566159"
       height="0.31821427"
       x="2.4838393"
       y="6.3183336"
       ry="0.15910713" />
  </g>
</svg>
