<?xml version="1.0" encoding="UTF-8" standalone="no"?>
<!-- Created with Inkscape (http://www.inkscape.org/) -->

<svg
   width="32"
   height="32"
   viewBox="0 0 8.4666666 8.4666666"
   version="1.1"
   id="svg5"
   xml:space="preserve"
   inkscape:version="1.2.2 (732a01da63, 2022-12-09)"
   sodipodi:docname="DesarrolloEscritorio.svg"
   xmlns:inkscape="http://www.inkscape.org/namespaces/inkscape"
   xmlns:sodipodi="http://sodipodi.sourceforge.net/DTD/sodipodi-0.dtd"
   xmlns="http://www.w3.org/2000/svg"
   xmlns:svg="http://www.w3.org/2000/svg"><sodipodi:namedview
     id="namedview7"
     pagecolor="#505050"
     bordercolor="#eeeeee"
     borderopacity="1"
     inkscape:showpageshadow="0"
     inkscape:pageopacity="0"
     inkscape:pagecheckerboard="0"
     inkscape:deskcolor="#505050"
     inkscape:document-units="px"
     showgrid="false"
     showguides="true"
     inkscape:zoom="16"
     inkscape:cx="18.84375"
     inkscape:cy="12.75"
     inkscape:window-width="1366"
     inkscape:window-height="705"
     inkscape:window-x="-8"
     inkscape:window-y="-8"
     inkscape:window-maximized="1"
     inkscape:current-layer="layer2" /><defs
     id="defs2"><filter
       inkscape:collect="always"
       style="color-interpolation-filters:sRGB"
       id="filter7976"
       x="-0.057239636"
       y="-0.057227268"
       width="1.1144793"
       height="1.1144545"><feGaussianBlur
         inkscape:collect="always"
         stdDeviation="0.17848982"
         id="feGaussianBlur7978" /></filter></defs><g
     inkscape:label="Capa 1"
     inkscape:groupmode="layer"
     id="layer1"><rect
       style="font-variation-settings:'wght' 700;fill:none;stroke-width:0.193102;stroke-linecap:round;paint-order:fill markers stroke;stroke:#141e4f;stroke-opacity:1"
       id="rect234"
       width="8.095458"
       height="5.8283105"
       x="0.18560429"
       y="0.40663165"
       ry="0.33172715" /><path
       id="rect391"
       style="font-variation-settings:'wght' 700;fill:#adb7ea;fill-opacity:1;stroke-width:0.0651012;stroke-linecap:round;paint-order:fill markers stroke"
       d="M 0.28153665,5.0961286 H 8.1860971 c 0,0 0.00168,0.5787423 -0.00145,0.8021144 0,0.1559913 -0.1450823,0.2815728 -0.3252969,0.2815728 H 0.60701488 c -0.18021445,0 -0.32529685,-0.1255815 -0.32529685,-0.2815728 0.001241,-0.2407765 -1.8138e-4,-0.8021144 -1.8138e-4,-0.8021144 z"
       sodipodi:nodetypes="cccsscc" /><rect
       style="font-variation-settings:'wght' 700;fill:#5c70d5;fill-opacity:1;stroke-width:0.158001;stroke-linecap:round;paint-order:fill markers stroke"
       id="rect495"
       width="1.0914062"
       height="0.99319059"
       x="3.688513"
       y="6.3334637"
       ry="0.018696016" /><rect
       style="font-variation-settings:'wght' 700;fill:#adb7ea;fill-opacity:1;stroke-width:0.137671;stroke-linecap:round;paint-order:fill markers stroke"
       id="rect3281"
       width="2.6871746"
       height="0.33072916"
       x="2.8451538"
       y="7.313127"
       ry="0.16536458" /><circle
       style="font-variation-settings:'wght' 700;fill:#adb7ea;fill-opacity:1;stroke:#000000;stroke-width:0.13626042;stroke-linecap:round;stroke-opacity:0.649573;paint-order:fill markers stroke;stroke-dasharray:none"
       id="path3751"
       cx="4.2342162"
       cy="5.6766052"
       r="0.24450721" /></g><g
     inkscape:groupmode="layer"
     id="layer2"
     inkscape:label="Capa 2"><rect
       style="font-variation-settings:'wght' 700;fill:#192665;fill-opacity:1;stroke-width:1.89214;stroke-linecap:square;paint-order:fill markers stroke"
       id="rect7089"
       width="2.1600924"
       height="0.47948056"
       x="2.2855766"
       y="0.77973002"
       ry="0.23974028" /><rect
       style="font-variation-settings:'wght' 700;fill:#141e51;fill-opacity:1;stroke-width:0.962761;stroke-linecap:square;paint-order:fill markers stroke"
       id="rect7093"
       width="0.33067629"
       height="4.0505915"
       x="1.5952899"
       y="0.77973002"
       ry="0.15317363" /><rect
       style="font-variation-settings:'wght' 700;fill:#99a6e5;fill-opacity:1;stroke-width:1.74487;stroke-linecap:square;paint-order:fill markers stroke"
       id="rect7101"
       width="0.73162121"
       height="0.48154727"
       x="0.63839537"
       y="0.77973002"
       ry="0.20148326" /><rect
       style="font-variation-settings:'wght' 700;fill:#99a6e5;fill-opacity:1;stroke-width:1.74487;stroke-linecap:square;paint-order:fill markers stroke"
       id="rect7214"
       width="0.73162121"
       height="0.48154727"
       x="0.63839537"
       y="1.5243602"
       ry="0.20148326" /><rect
       style="font-variation-settings:'wght' 700;fill:#99a6e5;fill-opacity:1;stroke-width:1.74487;stroke-linecap:square;paint-order:fill markers stroke"
       id="rect7216"
       width="0.73162121"
       height="0.48154727"
       x="0.63839537"
       y="2.2682431"
       ry="0.20148326" /><rect
       style="font-variation-settings:'wght' 700;fill:#99a6e5;fill-opacity:1;stroke-width:1.74487;stroke-linecap:square;paint-order:fill markers stroke"
       id="rect7218"
       width="0.73162121"
       height="0.48154727"
       x="0.63839537"
       y="2.9506238"
       ry="0.20148326" /><rect
       style="font-variation-settings:'wght' 700;fill:#99a6e5;fill-opacity:1;stroke-width:1.74487;stroke-linecap:square;paint-order:fill markers stroke"
       id="rect7220"
       width="0.73162121"
       height="0.48154727"
       x="0.63839537"
       y="3.6392748"
       ry="0.20148326" /><rect
       style="font-variation-settings:'wght' 700;fill:#99a6e5;fill-opacity:1;stroke-width:1.74487;stroke-linecap:square;paint-order:fill markers stroke"
       id="rect7222"
       width="0.73162121"
       height="0.48154727"
       x="0.63839537"
       y="4.3513827"
       ry="0.20148326" /><rect
       style="font-variation-settings:'wght' 700;fill:#192665;fill-opacity:1;stroke-width:1.89214;stroke-linecap:square;paint-order:fill markers stroke"
       id="rect7278"
       width="2.1600924"
       height="0.47948056"
       x="2.2855766"
       y="4.3510337"
       ry="0.23974028" /><rect
       style="font-variation-settings:'wght' 700;fill:#334dcb;fill-opacity:1;stroke-width:2.26281;stroke-linecap:square;paint-order:fill markers stroke"
       id="rect7280"
       width="3.0892973"
       height="0.47948056"
       x="2.2855766"
       y="1.5253935"
       ry="0.23974028" /><rect
       style="font-variation-settings:'wght' 700;fill:#99a6e5;fill-opacity:1;stroke-width:1.51838;stroke-linecap:square;paint-order:fill markers stroke"
       id="rect7282"
       width="1.3909973"
       height="0.47948056"
       x="2.2855766"
       y="2.2692764"
       ry="0.23974028" /><rect
       style="font-variation-settings:'wght' 700;fill:#99a6e5;fill-opacity:1;stroke-width:1.48237;stroke-linecap:square;paint-order:fill markers stroke"
       id="rect7286"
       width="1.3258059"
       height="0.47948056"
       x="2.8760521"
       y="2.9516571"
       ry="0.23974028" /><rect
       style="font-variation-settings:'wght' 700;fill:#334dcb;fill-opacity:1;stroke-width:2.4976;stroke-linecap:square;paint-order:fill markers stroke"
       id="rect7290"
       width="3.7636704"
       height="0.47948056"
       x="3.3603754"
       y="3.6403084"
       ry="0.23974028" /><rect
       style="font-variation-settings:'wght' 700;fill:#141e4f;fill-opacity:1;stroke-width:2.14073;stroke-linecap:square;paint-order:fill markers stroke"
       id="rect7296"
       width="2.7649531"
       height="0.47948056"
       x="4.3608303"
       y="2.9400256"
       ry="0.23974028" /><rect
       style="font-variation-settings:'wght' 700;fill:#141e4f;fill-opacity:1;stroke-width:1.51838;stroke-linecap:square;paint-order:fill markers stroke"
       id="rect7302"
       width="1.3909973"
       height="0.47948056"
       x="3.9838765"
       y="2.2692764"
       ry="0.23974028" /><path
       id="path7974"
       style="display:inline;mix-blend-mode:normal;fill:#1a1a1a;fill-opacity:1;stroke-width:0.0146446;filter:url(#filter7976)"
       d="m -10.887894,2.0582007 -0.04849,0.033941 c -0.0263,0.018757 -0.05778,0.054561 -0.07031,0.078791 -0.01362,0.026346 -0.03941,0.1822006 -0.06424,0.3878932 -0.02285,0.1891742 -0.04326,0.3456018 -0.04606,0.3478918 -0.0028,0.00229 -0.07028,0.025171 -0.149097,0.050911 -0.172093,0.056199 -0.350159,0.1308716 -0.476381,0.2000075 l -0.09212,0.050911 -0.200007,-0.1575816 c -0.381401,-0.3000293 -0.37793,-0.2969814 -0.45093,-0.2969814 -0.03622,0 -0.08371,0.00906 -0.105459,0.020607 -0.04756,0.025248 -0.75513,0.7338271 -0.77821,0.779423 -0.02418,0.047849 -0.01959,0.155126 0.0085,0.196371 0.01356,0.019915 0.116581,0.1522414 0.227887,0.2945564 l 0.202432,0.2581915 -0.05818,0.1078828 c -0.06474,0.1202286 -0.171159,0.3825843 -0.212129,0.5212315 -0.03156,0.106795 0.01494,0.090135 -0.421834,0.1418235 -0.175323,0.020748 -0.32169,0.04526 -0.34668,0.058184 -0.02379,0.012301 -0.05882,0.044007 -0.07758,0.070306 l -0.03394,0.048487 V 5.8013714 6.351695 l 0.04121,0.053335 c 0.02247,0.02947 0.05303,0.059931 0.06788,0.067881 0.01485,0.00795 0.164075,0.030618 0.332134,0.050911 0.45813,0.055318 0.407554,0.038464 0.438804,0.1442478 0.04081,0.1381498 0.147339,0.4009103 0.212129,0.5212316 l 0.05818,0.1078828 -0.157582,0.1987953 c -0.299764,0.3811038 -0.296981,0.3779279 -0.296981,0.4509259 0,0.036218 0.0091,0.083709 0.02061,0.1054584 0.01155,0.02175 0.189901,0.206252 0.395167,0.4109244 l 0.373347,0.3721351 0.07879,0.00727 c 0.04655,0.00386 0.09368,-7.145e-4 0.112731,-0.01091 0.01793,-0.00959 0.152743,-0.1124253 0.299405,-0.2278873 l 0.266677,-0.2097047 0.187886,0.093337 c 0.103681,0.050946 0.267127,0.1171783 0.362437,0.1478843 0.165614,0.053358 0.173413,0.058247 0.180613,0.1006098 0.0041,0.024379 0.02298,0.1803498 0.04243,0.3466796 0.02105,0.179904 0.04457,0.3203646 0.05818,0.3466796 0.02432,0.047029 0.08499,0.096427 0.133338,0.1090949 0.01611,0.00422 0.266994,0.00612 0.557597,0.00485 l 0.5285043,-0.00242 0.054547,-0.041214 c 0.030065,-0.022941 0.060863,-0.058645 0.069094,-0.080003 0.00823,-0.021358 0.031508,-0.1742894 0.050911,-0.3394066 0.050844,-0.4326765 0.03501,-0.3866374 0.1418235,-0.4181974 0.1386472,-0.040966 0.4010028,-0.1473902 0.5212315,-0.2121291 l 0.1066707,-0.058184 0.2654644,0.2084926 c 0.1457167,0.1147949 0.2778214,0.2168952 0.2945564,0.2266752 0.041785,0.024427 0.148491,0.022996 0.196371,-0.00242 0.047555,-0.025248 0.7551298,-0.733827 0.7782108,-0.779423 0.021114,-0.04171 0.020193,-0.1442543 -0.00121,-0.1842493 C -7.3188354,7.8435339 -7.3994724,7.736305 -7.4889661,7.6232633 -7.5784728,7.5102151 -7.6734112,7.390462 -7.6998961,7.35658 l -0.048487,-0.061821 0.058184,-0.1066706 c 0.069828,-0.1281022 0.1457565,-0.310371 0.2000075,-0.4800179 0.021893,-0.068463 0.04247,-0.1269418 0.04485,-0.1297018 0.00238,-0.00276 0.1587174,-0.024428 0.3478918,-0.047275 0.2056925,-0.024842 0.3615472,-0.050621 0.3878932,-0.064245 0.02423,-0.01253 0.060033,-0.044007 0.078791,-0.070306 l 0.033941,-0.047275 V 5.7989462 5.2486226 l -0.042426,-0.054547 c -0.022941,-0.030078 -0.058645,-0.062096 -0.080003,-0.070306 -0.021358,-0.00821 -0.1927582,-0.032996 -0.3806203,-0.05576 -0.187862,-0.022764 -0.3431774,-0.044515 -0.3454674,-0.047274 -0.00229,-0.00276 -0.025171,-0.069062 -0.050911,-0.1478843 -0.056228,-0.1721833 -0.1307655,-0.3499666 -0.2000074,-0.4763814 -0.032483,-0.0593 -0.047119,-0.099595 -0.038789,-0.1103072 0.00719,-0.00924 0.089505,-0.1123092 0.181825,-0.2290994 0.2562771,-0.3242019 0.2606158,-0.3318588 0.2606158,-0.4060758 0,-0.035567 -0.00685,-0.07938 -0.015758,-0.096973 -0.023081,-0.045596 -0.7306559,-0.754175 -0.7782108,-0.779423 -0.047592,-0.025266 -0.1479633,-0.026949 -0.1915223,-0.00364 -0.017352,0.00929 -0.1515755,0.1111168 -0.2981929,0.2266751 L -8.842969,3.2073344 -8.9496397,3.1503626 C -9.0698152,3.0856522 -9.3322503,2.9779803 -9.4708712,2.9370213 -9.5777336,2.9054464 -9.5618068,2.9526935 -9.6126947,2.5176117 -9.6506308,2.1932672 -9.6652336,2.1471783 -9.7423965,2.0921413 l -0.047275,-0.033941 h -0.5491115 z m 2.8267723,0.7176025 0.3660742,0.3697107 c 0.201302,0.203376 0.3676408,0.3697108 0.3697108,0.3697108 0.010371,0 -0.022461,-0.033238 -0.3660743,-0.3733473 z m -4.5625943,0.00727 c -0.004,0 -0.172106,0.1647118 -0.373347,0.3660742 -0.201242,0.2013625 -0.362802,0.3660743 -0.358802,0.3660743 0.004,0 0.172106,-0.1647118 0.373348,-0.3660743 0.201241,-0.2013624 0.362801,-0.3660742 0.358801,-0.3660742 z m 2.284934,1.1430729 c 0.100278,0 0.200326,0.00434 0.267888,0.014546 0.5272983,0.079644 0.9987803,0.3781155 1.2909576,0.8170002 0.2116795,0.3179673 0.3151563,0.6611343 0.3151633,1.0424631 9.6e-6,0.5028257 -0.1931554,0.9689418 -0.5491114,1.3248978 -0.282826,0.282826 -0.6199418,0.4544284 -1.0339775,0.5272924 -0.148891,0.026203 -0.448612,0.026584 -0.593962,0 -0.403586,-0.073814 -0.743186,-0.2498339 -1.021856,-0.5285045 -0.354474,-0.3544738 -0.549112,-0.8246989 -0.549112,-1.3236857 0,-0.928721 0.682932,-1.7200227 1.606121,-1.8594633 0.06756,-0.010205 0.16761,-0.014546 0.267889,-0.014546 z m -3.024356,4.1504578 0.197584,0.2012196 c 0.108622,0.1107496 0.199119,0.2024318 0.201219,0.2024318 0.0013,0 0.0024,-0.00147 0.0024,-0.00242 4.67e-4,-0.00667 -0.03634,-0.043114 -0.200008,-0.2036439 z m 0.401228,0.401227 0.155157,0.1587938 c 0.149392,0.1530303 0.168491,0.1717792 0.168491,0.1612182 0,-0.00215 -0.07425,-0.076393 -0.164855,-0.1648547 z m 5.6389976,-0.393954 c -0.00403,0 -0.1048469,0.099797 -0.2254629,0.2206142 -0.1206157,0.1208172 -0.2161591,0.2194022 -0.2121292,0.2194022 0.00403,0 0.1060591,-0.098585 0.2266752,-0.2194022 0.1206165,-0.1208171 0.2149469,-0.2206142 0.2109169,-0.2206142 z m -0.4388042,0.4400164 c -0.00403,0 -0.06926,0.062881 -0.14546,0.1393991 -0.076199,0.076517 -0.1361561,0.138187 -0.1321261,0.138187 0.00403,0 0.070472,-0.061669 0.1466721,-0.138187 0.076199,-0.076517 0.134944,-0.1393991 0.130914,-0.1393991 z"
       transform="matrix(0.39386645,0,0,0.39386645,11.066166,-0.76429116)" /><path
       id="path7629"
       style="display:inline;fill:#adb7ea;fill-opacity:1;stroke-width:0.00541967"
       d="m 6.7164379,-0.00492249 -0.017945,0.0125609 c -0.00973,0.006942 -0.021383,0.0201919 -0.02602,0.0291589 -0.00504,0.00975 -0.014585,0.0674287 -0.023774,0.1435513 -0.00846,0.0700095 -0.01601,0.12790013 -0.017046,0.12874761 -0.00104,8.4748e-4 -0.026009,0.009315 -0.055178,0.0188411 -0.063688,0.0207981 -0.1295866,0.0484329 -0.1762988,0.0740187 l -0.034092,0.0188411 -0.074019,-0.0583177 C 6.1509172,0.25144472 6.1522018,0.25257269 6.125186,0.25257269 c -0.013404,0 -0.030979,0.003353 -0.039028,0.007626 -0.017601,0.009344 -0.2794581,0.27157433 -0.2879995,0.28844843 -0.00895,0.0177079 -0.00725,0.057409 0.00315,0.0726729 0.00502,0.00737 0.043144,0.0563414 0.084336,0.10900925 l 0.074916,0.095551 -0.021531,0.039925 c -0.023959,0.044494 -0.063342,0.14158663 -0.078505,0.19289713 -0.01168,0.039523 0.00553,0.033357 -0.156112,0.052486 -0.064883,0.00768 -0.1190509,0.01675 -0.1282992,0.021533 -0.0088,0.00455 -0.021768,0.016286 -0.028711,0.026019 l -0.012561,0.017944 v 0.2036634 0.2036635 l 0.015251,0.019738 c 0.00832,0.010906 0.019625,0.022179 0.025121,0.025121 0.0055,0.00294 0.060721,0.011331 0.122916,0.018841 0.1695445,0.020472 0.1508273,0.014235 0.1623923,0.053383 0.015103,0.051126 0.054527,0.1483686 0.078505,0.1928971 l 0.021531,0.039925 -0.058318,0.07357 c -0.11094,0.14104 -0.1099101,0.1398647 -0.1099101,0.1668797 0,0.013404 0.00337,0.030979 0.00763,0.039028 0.00427,0.00805 0.070278,0.07633 0.1462432,0.1520747 l 0.1381681,0.1377196 0.029159,0.00269 c 0.017227,0.00143 0.034669,-2.644e-4 0.04172,-0.00404 0.00664,-0.00355 0.056527,-0.041606 0.1108036,-0.084336 l 0.098692,-0.077607 0.069533,0.034542 c 0.03837,0.018854 0.098858,0.043365 0.1341305,0.054729 0.06129,0.019747 0.064177,0.021556 0.066841,0.037234 0.00152,0.00902 0.0085,0.066744 0.015702,0.128299 0.00779,0.066579 0.016494,0.1185604 0.021531,0.128299 0.009,0.017405 0.031453,0.035686 0.049346,0.040374 0.00596,0.00156 0.098809,0.00226 0.2063552,0.00179 l 0.1955886,-8.956e-4 0.020187,-0.015252 c 0.011127,-0.00849 0.022524,-0.021703 0.02557,-0.029607 0.00305,-0.0079 0.01166,-0.064501 0.018841,-0.1256074 0.018816,-0.1601247 0.012956,-0.1430866 0.052486,-0.1547663 0.05131,-0.015161 0.1484029,-0.054546 0.192897,-0.078505 l 0.039477,-0.021533 0.098243,0.077159 c 0.053927,0.042483 0.102816,0.080269 0.1090093,0.083888 0.015464,0.00904 0.054953,0.00851 0.072673,-8.956e-4 0.017599,-0.00934 0.279458,-0.2715742 0.2879999,-0.2884484 0.00781,-0.015436 0.00747,-0.053385 -4.478e-4,-0.068187 -0.00343,-0.00641 -0.033273,-0.046091 -0.066393,-0.087925 -0.033124,-0.041837 -0.068259,-0.086155 -0.078061,-0.098694 l -0.017944,-0.022879 0.021533,-0.039477 c 0.025842,-0.047408 0.053942,-0.114862 0.074019,-0.1776448 0.0081,-0.025337 0.015717,-0.046978 0.016598,-0.048 8.808e-4,-0.00102 0.058738,-0.00904 0.1287476,-0.017496 0.076122,-0.00919 0.1338012,-0.018734 0.1435513,-0.023776 0.00897,-0.00464 0.022217,-0.016286 0.029159,-0.026019 L 8.304479,1.5831053 V 1.3794506 1.1757871 L 8.288778,1.1556001 C 8.280288,1.1444691 8.267075,1.1326201 8.25917,1.1295811 8.25127,1.1265411 8.187834,1.1173701 8.1183103,1.1089451 8.0487863,1.1005251 7.9913074,1.0924711 7.9904599,1.0914501 c -8.475e-4,-0.00102 -0.00932,-0.025558 -0.018841,-0.054729 -0.020809,-0.063721 -0.048394,-0.12951553 -0.074019,-0.17629903 -0.012021,-0.021946 -0.017438,-0.036858 -0.014355,-0.040822 0.00266,-0.00342 0.033124,-0.041563 0.06729,-0.084785 0.094843,-0.11998045 0.096449,-0.12281411 0.096449,-0.15028029 0,-0.0131626 -0.00254,-0.0293769 -0.00583,-0.0358877 -0.00854,-0.0168741 -0.2704008,-0.27910467 -0.2879999,-0.28844843 -0.017613,-0.00935 -0.054758,-0.009973 -0.070878,-0.001347 -0.00642,0.003438 -0.056095,0.041122 -0.1103551,0.0838878 l -0.098692,0.0776086 -0.039477,-0.0210841 c -0.044474,-0.023948 -0.1415964,-0.0637952 -0.1928971,-0.0789532 -0.039548,-0.0116852 -0.033653,0.0058 -0.052486,-0.15521488 -0.014039,-0.12003323 -0.019444,-0.13708978 -0.048,-0.15745785 L 7.1228675,-0.00492263 H 6.9196526 Z m 1.0461303,0.26556994 0.1354766,0.13682233 c 0.074498,0.0752653 0.1360563,0.13682237 0.1368223,0.13682237 0.00384,0 -0.00831,-0.0123007 -0.1354766,-0.13816816 z m -1.6885224,0.00269 c -0.00148,0 -0.063693,0.0609565 -0.138168,0.13547654 -0.074476,0.0745201 -0.1342656,0.13547657 -0.1327853,0.13547657 0.00148,0 0.063693,-0.0609565 0.1381684,-0.13547657 0.074475,-0.0745201 0.1342652,-0.13547654 0.1327849,-0.13547654 z m 0.8456071,0.42302779 c 0.037111,0 0.074137,0.001606 0.09914,0.005383 0.1951423,0.0294746 0.3696281,0.13993273 0.4777569,0.30235493 0.078338,0.11767323 0.1166328,0.24467223 0.1166354,0.38579423 3.6e-6,0.1860854 -0.071483,0.3585854 -0.2032148,0.4903174 -0.1046681,0.1046681 -0.2294277,0.1681746 -0.3826538,0.1951401 -0.055102,0.0097 -0.1660221,0.00984 -0.2198132,0 C 6.6581444,2.0380386 6.5324655,1.9728972 6.4293354,1.869767 6.2981519,1.7385835 6.2261204,1.5645628 6.2261204,1.3798981 c 0,-0.3437006 0.2527391,-0.63654513 0.5943923,-0.6881492 0.025003,-0.003777 0.062029,-0.005383 0.09914,-0.005384 z m -1.119252,1.53599916 0.073122,0.074467 c 0.040199,0.040986 0.07369,0.074916 0.074467,0.074916 4.811e-4,0 8.882e-4,-5.44e-4 8.882e-4,-8.956e-4 1.729e-4,-0.00247 -0.013449,-0.015956 -0.074019,-0.075364 z m 0.1484863,0.1484859 0.05742,0.058766 c 0.055287,0.056633 0.062355,0.063572 0.062355,0.059664 0,-7.956e-4 -0.027478,-0.028272 -0.061009,-0.061009 z M 8.0357643,2.2250565 c -0.00149,0 -0.038802,0.036933 -0.083439,0.081645 -0.044637,0.044712 -0.079996,0.081196 -0.078505,0.081196 0.00149,0 0.03925,-0.036484 0.083888,-0.081196 0.044638,-0.044712 0.079547,-0.081645 0.078056,-0.081645 z m -0.1623924,0.162841 c -0.00149,0 -0.025632,0.023271 -0.053832,0.051589 -0.0282,0.028317 -0.050389,0.05114 -0.048897,0.05114 0.00149,0 0.02608,-0.022822 0.05428,-0.05114 0.0282,-0.028317 0.04994,-0.051589 0.048449,-0.051589 z" /></g></svg>
