<?xml version="1.0" encoding="UTF-8" standalone="no"?>
<!-- Created with Inkscape (http://www.inkscape.org/) -->

<svg
   width="32"
   height="32"
   viewBox="0 0 8.4666666 8.4666666"
   version="1.1"
   id="svg36304"
   xml:space="preserve"
   inkscape:version="1.2.2 (732a01da63, 2022-12-09)"
   sodipodi:docname="adaptabilidad.svg"
   xmlns:inkscape="http://www.inkscape.org/namespaces/inkscape"
   xmlns:sodipodi="http://sodipodi.sourceforge.net/DTD/sodipodi-0.dtd"
   xmlns="http://www.w3.org/2000/svg"
   xmlns:svg="http://www.w3.org/2000/svg"><sodipodi:namedview
     id="namedview36306"
     pagecolor="#505050"
     bordercolor="#eeeeee"
     borderopacity="1"
     inkscape:showpageshadow="0"
     inkscape:pageopacity="0"
     inkscape:pagecheckerboard="0"
     inkscape:deskcolor="#505050"
     inkscape:document-units="px"
     showgrid="false"
     inkscape:zoom="10.582793"
     inkscape:cx="20.268751"
     inkscape:cy="14.646417"
     inkscape:window-width="1366"
     inkscape:window-height="705"
     inkscape:window-x="-8"
     inkscape:window-y="-8"
     inkscape:window-maximized="1"
     inkscape:current-layer="layer1" /><defs
     id="defs36301" /><g
     inkscape:label="Capa 1"
     inkscape:groupmode="layer"
     id="layer1"><g
       id="g36449"
       transform="matrix(0.6882955,0,0,0.6882955,1.240229,1.3977998)"><path
         id="path36455"
         style="fill:#808080;fill-opacity:1;stroke-width:0.00851557"
         d="m 4.0158204,2.0577555 c -0.1610437,9.25e-4 -0.1709025,0.00473 -0.1881022,0.01757 -0.058104,0.043384 -0.058038,0.044331 -0.060978,0.2666504 l -0.0031,0.2020548 -0.095085,0.032039 c -0.052391,0.017623 -0.141601,0.054537 -0.1984379,0.081649 L 3.3667644,2.7068115 3.236023,2.5755534 C 3.1640616,2.5032171 3.0946743,2.4386029 3.0820273,2.4318929 c -0.029509,-0.015647 -0.086274,-0.015657 -0.1157552,0 -0.013687,0.00727 -0.1420324,0.1319745 -0.269751,0.2599324 -0.1307031,0.130948 -0.2609045,0.2651381 -0.2676839,0.278536 -0.013176,0.02604 -0.011405,0.084264 0.0031,0.1116211 0.00671,0.012647 0.071324,0.082035 0.1436604,0.1539958 l 0.1312582,0.1307413 -0.049093,0.1033529 c -0.027112,0.056837 -0.064026,0.146041 -0.081649,0.1984375 l -0.032039,0.095601 -0.2020548,0.00258 c -0.2223202,0.00294 -0.2232665,0.00287 -0.2666504,0.060978 -0.017122,0.022933 -0.01757,0.033174 -0.01757,0.40566 0,0.3724866 4.48e-4,0.382727 0.01757,0.40566 0.043384,0.058104 0.044331,0.058038 0.2666504,0.060978 l 0.2020548,0.00258 0.032039,0.095601 c 0.017623,0.052391 0.054537,0.1416008 0.081649,0.1984375 L 2.7068558,5.0999383 2.5983353,5.207942 C 2.6564223,5.14933 2.7021534,5.1020053 2.7001378,5.1020053 c -0.00234,0 -0.063427,0.05918 -0.135909,0.1317749 -0.072481,0.072595 -0.1299808,0.1322917 -0.1276408,0.1322917 0.00205,0 0.052348,-0.049036 0.1126547,-0.1090373 -0.060872,0.061578 -0.1114417,0.1165822 -0.1173055,0.1276408 -0.015647,0.029509 -0.015657,0.086275 0,0.1157552 0.014708,0.027693 0.5119782,0.5240309 0.5384684,0.5374349 0.02604,0.013176 0.084264,0.011405 0.1116211,-0.0031 0.011199,-0.00594 0.067169,-0.057977 0.1297078,-0.1198893 -0.063195,0.063597 -0.1127178,0.1152384 -0.1105876,0.1152384 0.00234,0 0.063427,-0.05918 0.1359091,-0.1317749 0.072481,-0.072595 0.1299807,-0.1322916 0.1276407,-0.1322916 -0.00189,0 -0.04625,0.043103 -0.099735,0.096118 l 0.1018026,-0.1023193 0.1033529,0.049093 c 0.056837,0.027112 0.1462627,0.063924 0.1989542,0.081649 l 0.096118,0.032039 v 0.1834513 c 2e-5,0.1009468 0.00364,0.1972814 0.00827,0.2139404 0.00988,0.035548 0.046791,0.074073 0.081649,0.084749 0.013562,0.00415 0.1905142,0.00655 0.3927409,0.00568 0.3568097,-0.00152 0.3683806,-0.00208 0.3911906,-0.01912 0.058103,-0.043398 0.058038,-0.044337 0.060978,-0.2666504 l 0.00258,-0.2020548 0.095601,-0.032039 c 0.052391,-0.017623 0.1416007,-0.054537 0.1984375,-0.081649 l 0.1033528,-0.049093 0.1307414,0.1312581 c 0.071961,0.072336 0.1413498,0.1369505 0.1539958,0.1436605 0.029509,0.01565 0.086274,0.015657 0.1157552,0 0.013687,-0.00727 0.1420323,-0.1319745 0.269751,-0.2599324 0.1307031,-0.130948 0.2609045,-0.2651381 0.2676839,-0.278536 0.013177,-0.02604 0.011405,-0.084264 -0.0031,-0.1116211 -0.0067,-0.012634 -0.071322,-0.082022 -0.1436584,-0.153983 L 5.7599,5.0999471 5.8089926,4.9965942 c 0.027112,-0.056837 0.063508,-0.146041 0.081132,-0.1984375 l 0.032039,-0.095601 0.2025716,-0.00258 c 0.2223202,-0.00294 0.2232664,-0.00287 0.2666504,-0.060978 0.017122,-0.022933 0.01757,-0.033174 0.01757,-0.40566 0,-0.3724865 -4.48e-4,-0.382727 -0.01757,-0.40566 -0.043384,-0.058104 -0.044331,-0.058038 -0.2666504,-0.060978 L 5.922164,3.7641113 5.8901246,3.6685099 C 5.8725016,3.6161192 5.8361045,3.5269093 5.8089926,3.4700724 L 5.7599,3.3667195 5.8684205,3.2587158 c -0.058086,0.058612 -0.1043349,0.1059367 -0.1023194,0.1059367 0.00234,0 0.063944,-0.05918 0.1364258,-0.1317749 0.072481,-0.072595 0.1299808,-0.1322917 0.1276408,-0.1322917 -0.00205,0 -0.052348,0.049036 -0.1126546,0.1090373 0.060871,-0.061578 0.1114383,-0.1165824 0.1173055,-0.1276408 0.014504,-0.027357 0.016277,-0.085581 0.0031,-0.1116211 -0.013404,-0.02649 -0.509742,-0.5237604 -0.5374349,-0.5384684 -0.02948,-0.015657 -0.086246,-0.015647 -0.1157552,0 -0.012211,0.00647 -0.077526,0.067152 -0.1467611,0.1364258 0.072481,-0.072595 0.1299808,-0.1317749 0.1276408,-0.1317749 -0.00234,0 -0.063427,0.05918 -0.135909,0.1317749 -0.072481,0.072595 -0.1299808,0.1322916 -0.1276408,0.1322916 0.00225,0 0.059891,-0.056307 0.1286743,-0.1250569 L 5.0999919,2.7068115 4.9966391,2.6577189 C 4.9398023,2.6306079 4.8505925,2.5936931 4.7982016,2.5760701 l -0.095601,-0.032039 -0.00258,-0.2020548 c -0.00294,-0.2223202 -0.00287,-0.2232664 -0.060978,-0.2666504 -0.022933,-0.017122 -0.033174,-0.01757 -0.40566,-0.01757 -0.093122,0 -0.1638766,-3.083e-4 -0.2175578,0 z M 5.7702353,5.7748413 C 5.6344726,5.9106644 5.5255328,6.0218546 5.5278728,6.0218546 c 0.00234,0 0.1153848,-0.1111902 0.2511474,-0.2470133 C 5.914783,5.639018 6.0237227,5.5278279 6.0213827,5.5278279 c -0.00234,0 -0.1153848,0.111189 -0.2511474,0.2470134 z M 2.6965211,2.6918253 C 2.8322837,2.5560022 2.9412235,2.444812 2.9388835,2.444812 c -0.00234,0 -0.1153847,0.1111902 -0.2511474,0.2470133 -0.1357627,0.1358233 -0.2447025,0.2470134 -0.2423625,0.2470134 0.00234,0 0.1153848,-0.1111901 0.2511475,-0.2470134 z m 0.3999756,-0.2594157 0.1317749,0.133842 c 0.072538,0.073766 0.1331287,0.1343587 0.1343587,0.1343587 0.00608,0 -0.00718,-0.013901 -0.1317749,-0.1364257 z m 2.4267252,0.00827 0.2470134,0.2490804 c 0.2294451,0.2314741 0.2511474,0.2530333 0.2511474,0.2470133 0,-0.0012 -0.1120863,-0.1132874 -0.2490804,-0.2490804 z M 2.4324545,3.0964518 2.5642294,3.2308105 c 0.072538,0.073766 0.132612,0.133842 0.133842,0.133842 0.00608,0 -0.00718,-0.013901 -0.1317749,-0.1364258 z m 1.8009237,0.1627808 c 0.1425815,0 0.165111,0.00236 0.2387451,0.022221 0.1749366,0.047193 0.3228741,0.1327049 0.451652,0.2614828 0.1287779,0.1287778 0.2142896,0.2767154 0.2614827,0.451652 0.019868,0.073634 0.022221,0.096164 0.022221,0.2387451 0,0.1425812 -0.00236,0.1651112 -0.022221,0.2387451 C 5.1380649,4.647015 5.0525532,4.7949526 4.9237753,4.9237304 4.7944109,5.0530947 4.6447378,5.1395395 4.4721233,5.1846964 4.3679022,5.2119606 4.1647003,5.2193926 4.0602621,5.1996826 3.6847415,5.1288138 3.3824315,4.8462201 3.2814983,4.4720784 3.2616303,4.3984443 3.2592774,4.3759149 3.2592774,4.2333333 c 0,-0.1425811 0.00236,-0.1651112 0.022221,-0.2387451 C 3.3286914,3.8196516 3.4142032,3.671714 3.542981,3.5429362 3.6717589,3.4141583 3.8196964,3.3286464 3.9946331,3.2814534 4.0682672,3.2615854 4.0907967,3.2592326 4.2333782,3.2592326 Z M 5.761967,5.09788 5.8937419,5.231722 c 0.072538,0.073766 0.1331287,0.1343587 0.1343587,0.1343587 0.00608,0 -0.00769,-0.013901 -0.1322916,-0.1364258 z M 2.4407227,5.5236938 2.6877361,5.7727742 c 0.135793,0.1369941 0.2478804,0.2490804 0.2490804,0.2490804 0.00602,0 -0.015539,-0.022219 -0.2470134,-0.2516642 z m 2.6566854,0.2382284 0.1322917,0.1338419 c 0.072538,0.073766 0.1326119,0.1343587 0.1338419,0.1343587 0.00608,0 -0.00718,-0.013901 -0.1317749,-0.1364257 z" /></g><rect
       style="font-variation-settings:'wght' 700;display:inline;fill:#808080;stroke:#808080;stroke-width:0.225691;stroke-linecap:square;stroke-linejoin:round;paint-order:fill markers stroke"
       id="rect36458"
       width="1.3533937"
       height="1.3533937"
       x="3.5117011"
       y="0.58609205"
       ry="0.016850816" /><circle
       style="font-variation-settings:'wght' 700;display:inline;fill:#808080;stroke:#808080;stroke-width:0.279285;stroke-linecap:square;stroke-linejoin:round;paint-order:fill markers stroke"
       id="path36512"
       cx="7.2020903"
       cy="4.3387136"
       r="0.78663915" /><path
       sodipodi:type="star"
       style="font-variation-settings:'wght' 700;display:inline;fill:#808080;stroke:#808080;stroke-width:0.275167;stroke-linecap:square;stroke-linejoin:miter;paint-order:fill markers stroke"
       id="path36566"
       inkscape:flatsided="true"
       sodipodi:sides="3"
       sodipodi:cx="4.5752335"
       sodipodi:cy="7.6003881"
       sodipodi:r1="0.75045484"
       sodipodi:r2="0.37522742"
       sodipodi:arg1="1.5707963"
       sodipodi:arg2="2.6179939"
       inkscape:rounded="0"
       inkscape:randomized="0"
       d="m 4.5752335,8.3508429 -0.649913,-1.1256823 1.2998259,0 z"
       inkscape:transform-center-y="0.21423506"
       transform="matrix(1.1140428,0,0,-1.1140428,-0.88810174,15.915531)" /><path
       sodipodi:type="star"
       style="font-variation-settings:'wght' 700;display:inline;fill:#808080;stroke:#808080;stroke-width:0.275167;stroke-linecap:square;stroke-linejoin:miter;paint-order:fill markers stroke"
       id="path37657"
       inkscape:flatsided="true"
       sodipodi:sides="6"
       sodipodi:cx="0.32501656"
       sodipodi:cy="3.6751873"
       sodipodi:r1="1.0512434"
       sodipodi:r2="0.52562171"
       sodipodi:arg1="1.5232132"
       sodipodi:arg2="2.046812"
       inkscape:rounded="0"
       inkscape:randomized="0"
       d="M 0.37501913,4.7252409 -0.55935521,4.2435176 -0.60935779,3.1934641 0.27501398,2.6251338 1.2093883,3.1068571 1.2593909,4.1569106 Z"
       inkscape:transform-center-x="-0.19665689"
       inkscape:transform-center-y="-0.027822861"
       transform="matrix(0.03043699,0.8196318,0.8196318,-0.03043699,-1.9337013,4.1529049)" /><path
       d="M 7.361116,3.2125188 C 7.3209524,3.1963253 7.2995342,3.1601679 7.2435578,3.014063 7.0245953,2.4425444 6.5766069,1.9107135 6.0377272,1.5825573 5.8776525,1.4850781 5.7503119,1.4214869 5.5770482,1.3525038 5.4996612,1.3216924 5.4280128,1.2895946 5.4178327,1.2811737 c -0.07138,-0.059036 -0.02588,-0.1857097 0.06713,-0.1868666 0.048882,-6.082e-4 0.2882909,0.094839 0.4664081,0.1859482 0.5809493,0.2971628 1.0716329,0.7886539 1.3715678,1.3738248 0.088974,0.1735866 0.1843309,0.4130721 0.1843309,0.4629385 0,0.034609 -0.043236,0.095619 -0.067762,0.095619 -0.00661,0 -0.020211,0.00269 -0.030224,0.00598 -0.010013,0.00328 -0.031686,5.441e-4 -0.048164,-0.0061 z"
       style="fill:#808080;fill-opacity:1;stroke-width:0.0136695"
       id="path38558" /><path
       d="M 1.1037603,3.2125188 C 1.1439239,3.1963258 1.1653421,3.1601678 1.2213185,3.014063 1.440281,2.4425444 1.8882694,1.9107135 2.427149,1.5825573 2.5872237,1.4850783 2.7145643,1.4214869 2.887828,1.3525038 2.965215,1.3216928 3.0368634,1.2895948 3.0470435,1.2811738 3.1184235,1.2221378 3.0729235,1.0954641 2.9799135,1.0943072 2.9310315,1.093699 2.6916226,1.1891462 2.5135054,1.2802554 1.9325562,1.5774182 1.4418726,2.0689093 1.1419377,2.6540802 1.0529637,2.8276668 0.95760678,3.0671523 0.95760678,3.1170187 c 0,0.034609 0.043236,0.095619 0.067762,0.095619 0.00661,0 0.020211,0.00269 0.030224,0.00598 0.010013,0.00328 0.031686,5.441e-4 0.048164,-0.0061 z"
       style="fill:#808080;fill-opacity:1;stroke-width:0.0136695"
       id="path38596" /><path
       d="M 7.361116,5.5391118 C 7.3209524,5.5553053 7.2995342,5.5914627 7.2435578,5.7375676 7.0245953,6.3090862 6.5766069,6.8409171 6.0377272,7.1690733 5.8776525,7.2665525 5.7503119,7.3301437 5.5770482,7.3991268 c -0.077387,0.030811 -0.1490354,0.062909 -0.1592155,0.07133 -0.07138,0.059036 -0.02588,0.1857097 0.06713,0.1868666 0.048882,6.083e-4 0.2882909,-0.094839 0.4664081,-0.1859481 C 6.5323201,7.1742125 7.0230037,6.6827214 7.3229386,6.0975505 7.4119126,5.9239639 7.5072695,5.6844784 7.5072695,5.634612 c 0,-0.034609 -0.043236,-0.095619 -0.067762,-0.095619 -0.00661,0 -0.020211,-0.00269 -0.030224,-0.00598 -0.010013,-0.00328 -0.031686,-5.441e-4 -0.048164,0.0061 z"
       style="fill:#808080;fill-opacity:1;stroke-width:0.0136695"
       id="path38598" /><path
       d="m 1.1037603,5.5391118 c 0.040164,0.016193 0.061582,0.052351 0.1175582,0.1984558 0.2189625,0.5715186 0.6669509,1.1033495 1.2058305,1.4315057 0.1600747,0.097479 0.2874153,0.1610704 0.460679,0.2300535 0.077387,0.030811 0.1490354,0.062909 0.1592155,0.07133 0.07138,0.059036 0.02588,0.1857097 -0.06713,0.1868666 C 2.9310315,7.6579316 2.6916226,7.5624844 2.5135054,7.4713752 1.9325562,7.1742124 1.4418726,6.6827213 1.1419377,6.0975504 1.0529637,5.9239638 0.95760678,5.6844783 0.95760678,5.6346119 c 0,-0.034609 0.043236,-0.095619 0.067762,-0.095619 0.00661,0 0.020211,-0.00269 0.030224,-0.00598 0.010013,-0.00328 0.031686,-5.441e-4 0.048164,0.0061 z"
       style="fill:#808080;fill-opacity:1;stroke-width:0.0136695"
       id="path38600" /></g></svg>
