<?xml version="1.0" encoding="UTF-8" standalone="no"?>
<!-- Created with Inkscape (http://www.inkscape.org/) -->

<svg
   width="31.999998"
   height="31.999998"
   viewBox="0 0 8.4666661 8.4666661"
   version="1.1"
   id="svg7857"
   xml:space="preserve"
   inkscape:version="1.2.2 (732a01da63, 2022-12-09)"
   sodipodi:docname="mobiledesing.svg"
   xmlns:inkscape="http://www.inkscape.org/namespaces/inkscape"
   xmlns:sodipodi="http://sodipodi.sourceforge.net/DTD/sodipodi-0.dtd"
   xmlns="http://www.w3.org/2000/svg"
   xmlns:svg="http://www.w3.org/2000/svg"><sodipodi:namedview
     id="namedview7859"
     pagecolor="#505050"
     bordercolor="#eeeeee"
     borderopacity="1"
     inkscape:showpageshadow="0"
     inkscape:pageopacity="0"
     inkscape:pagecheckerboard="0"
     inkscape:deskcolor="#505050"
     inkscape:document-units="px"
     showgrid="false"
     showguides="true"
     inkscape:zoom="16"
     inkscape:cx="15.84375"
     inkscape:cy="15.3125"
     inkscape:window-width="1366"
     inkscape:window-height="705"
     inkscape:window-x="-8"
     inkscape:window-y="-8"
     inkscape:window-maximized="1"
     inkscape:current-layer="layer3"><sodipodi:guide
       position="6.1253125,2.5163626"
       orientation="-1,0"
       id="guide10579"
       inkscape:locked="false" /></sodipodi:namedview><defs
     id="defs7854" /><g
     inkscape:groupmode="layer"
     id="layer4"
     inkscape:label="Capa 3"><path
       id="rect36487"
       style="font-variation-settings:'wght' 700;fill:#5c70d5;stroke:#293da2;stroke-width:0.296012;stroke-linecap:round;paint-order:fill markers stroke"
       d="m 1.8510498,3.3974202 h 0.2749186 c 0.030802,0 0.055599,0.024797 0.055599,0.055599 0,0.030802 -0.024797,0.055599 -0.055599,0.055599 H 1.8510498 c -0.030802,0 -0.055599,-0.024797 -0.055599,-0.055599 0,-0.030802 0.024797,-0.055599 0.055599,-0.055599 z" /><path
       id="rect36489"
       style="font-variation-settings:'wght' 700;fill:#5c70d5;stroke:#adb7ea;stroke-width:0.348787;stroke-linecap:round;paint-order:fill markers stroke"
       d="m 2.7923397,3.4238074 h 0.9618847 c 0.016183,0 0.029212,0.013028 0.029212,0.029212 0,0.016183 -0.013028,0.029212 -0.029212,0.029212 H 2.7923397 c -0.016183,0 -0.029212,-0.013028 -0.029212,-0.029212 0,-0.016183 0.013028,-0.029212 0.029212,-0.029212 z" /><path
       id="rect36491"
       style="font-variation-settings:'wght' 700;fill:#adb7ea;stroke:#adb7ea;stroke-width:0.326014;stroke-linecap:round;paint-order:fill markers stroke"
       d="M 2.1131088,3.9994657 H 3.081406 c 0.015367,0 0.027738,0.012371 0.027738,0.027738 v 0.030887 c 0,0.015367 -0.012371,0.027738 -0.027738,0.027738 H 2.1131088 c -0.015367,0 -0.027738,-0.012371 -0.027738,-0.027738 V 4.027204 c 0,-0.015367 0.012371,-0.027738 0.027738,-0.027738 z" /><path
       id="rect36493"
       style="font-variation-settings:'wght' 700;fill:#5c70d5;stroke:#5c70d5;stroke-width:0.323288;stroke-linecap:round;paint-order:fill markers stroke"
       d="m 2.1217022,4.5846481 h 0.526319 c 0.023246,0 0.041961,0.018715 0.041961,0.041961 0,0.023246 -0.018715,0.041961 -0.041961,0.041961 h -0.526319 c -0.023246,0 -0.041961,-0.018715 -0.041961,-0.041961 0,-0.023246 0.018715,-0.041961 0.041961,-0.041961 z" /><path
       id="rect36495"
       style="font-variation-settings:'wght' 700;fill:#5c70d5;stroke:#adb7ea;stroke-width:0.361312;stroke-linecap:round;paint-order:fill markers stroke"
       d="m 3.3319322,4.6036592 h 1.3477551 c 0.012714,0 0.022949,0.010235 0.022949,0.02295 0,0.012714 -0.010235,0.02295 -0.022949,0.02295 H 3.3319322 c -0.012714,0 -0.02295,-0.010236 -0.02295,-0.02295 0,-0.012714 0.010235,-0.02295 0.02295,-0.02295 z" /><path
       id="rect36497"
       style="font-variation-settings:'wght' 700;fill:#5c70d5;stroke:#293da2;stroke-width:0.287482;stroke-linecap:round;paint-order:fill markers stroke"
       d="M 2.1155011,5.1827288 H 2.385505 c 0.029729,0 0.053662,0.023933 0.053662,0.053662 0,0.029729 -0.023933,0.053662 -0.053662,0.053662 H 2.1155011 c -0.029729,0 -0.053662,-0.023934 -0.053662,-0.053662 0,-0.029729 0.023933,-0.053662 0.053662,-0.053662 z" /><path
       id="rect36499"
       style="font-variation-settings:'wght' 700;fill:#5c70d5;stroke:#adb7ea;stroke-width:0.332264;stroke-linecap:round;paint-order:fill markers stroke"
       d="m 2.9340556,5.2051191 h 0.8023877 c 0.017324,0 0.031272,0.013947 0.031272,0.031272 0,0.017325 -0.013947,0.031272 -0.031272,0.031272 H 2.9340556 c -0.017325,0 -0.031272,-0.013947 -0.031272,-0.031272 0,-0.017325 0.013947,-0.031272 0.031272,-0.031272 z" /><path
       id="rect36573"
       style="font-variation-settings:'wght' 700;fill:none;stroke:#5c70d5;stroke-width:0.332264;stroke-linecap:round;stroke-opacity:1;paint-order:fill markers stroke"
       d="m 4.7171407,5.2676626 -0.3072059,2e-7 c -0.017324,0 -0.031272,-0.013947 -0.031272,-0.031272 0,-0.017324 0.013947,-0.031272 0.031272,-0.031272 v 0 h 0.3072061"
       sodipodi:nodetypes="cssscc" /><path
       id="rect38279"
       style="font-variation-settings:'wght' 700;fill:#adb7ea;stroke:#adb7ea;stroke-width:0.326014;stroke-linecap:round;paint-order:fill markers stroke"
       d="M 2.1131088,5.8118873 H 3.081406 c 0.015367,0 0.027738,0.012371 0.027738,0.027738 v 0.030887 c 0,0.015367 -0.012371,0.027738 -0.027738,0.027738 H 2.1131088 c -0.015367,0 -0.027738,-0.012371 -0.027738,-0.027738 v -0.030887 c 0,-0.015367 0.012371,-0.027738 0.027738,-0.027738 z" /><path
       id="path39026"
       style="font-variation-settings:'wght' 700;fill:#5c70d5;stroke:#293da2;stroke-width:0.207106;stroke-linecap:round;paint-order:fill markers stroke"
       d="m 5.1766712,4.6336253 h 0.1741224 c 0.019509,0 0.035214,0.019166 0.035214,0.042971 0,0.023806 -0.015705,0.042971 -0.035214,0.042971 H 5.1766712 c -0.019509,0 -0.035214,-0.019166 -0.035214,-0.042971 0,-0.023806 0.015705,-0.042971 0.035214,-0.042971 z" /><path
       id="path39028"
       style="font-variation-settings:'wght' 700;fill:#5c70d5;stroke:#adb7ea;stroke-width:0.244029;stroke-linecap:round;paint-order:fill markers stroke"
       d="m 5.7728469,4.6540195 h 0.6092196 c 0.01025,0 0.018501,0.010069 0.018501,0.022578 0,0.012508 -0.00826,0.022578 -0.018501,0.022578 H 5.7728469 c -0.01025,0 -0.018501,-0.010069 -0.018501,-0.022578 0,-0.012508 0.00826,-0.022578 0.018501,-0.022578 z" /><path
       id="path39030"
       style="font-variation-settings:'wght' 700;fill:#adb7ea;stroke:#adb7ea;stroke-width:0.228097;stroke-linecap:round;paint-order:fill markers stroke"
       d="M 5.3426489,5.0989363 H 5.95593 c 0.00973,0 0.017568,0.00956 0.017568,0.021438 v 0.023872 c 0,0.011877 -0.00784,0.021438 -0.017568,0.021438 H 5.3426489 c -0.00973,0 -0.017568,-0.00956 -0.017568,-0.021438 v -0.023872 c 0,-0.011877 0.00784,-0.021438 0.017568,-0.021438 z" /><path
       id="path39032"
       style="font-variation-settings:'wght' 700;fill:#5c70d5;stroke:#5c70d5;stroke-width:0.226189;stroke-linecap:round;paint-order:fill markers stroke"
       d="m 5.3480917,5.5512142 h 0.3333496 c 0.014722,0 0.026576,0.014465 0.026576,0.032431 0,0.017966 -0.011853,0.032431 -0.026576,0.032431 H 5.3480917 c -0.014722,0 -0.026576,-0.014465 -0.026576,-0.032431 0,-0.017967 0.011853,-0.032431 0.026576,-0.032431 z" /><path
       id="path39034"
       style="font-variation-settings:'wght' 700;fill:#5c70d5;stroke:#adb7ea;stroke-width:0.252793;stroke-linecap:round;paint-order:fill markers stroke"
       d="m 6.1146034,5.5659075 h 0.8536148 c 0.00805,0 0.014535,0.00791 0.014535,0.017738 0,0.00982 -0.00648,0.017738 -0.014535,0.017738 H 6.1146034 c -0.00805,0 -0.014536,-0.00791 -0.014536,-0.017738 0,-0.00982 0.00647,-0.017738 0.014536,-0.017738 z" /><path
       id="path39036"
       style="font-variation-settings:'wght' 700;fill:#5c70d5;stroke:#293da2;stroke-width:0.201137;stroke-linecap:round;paint-order:fill markers stroke"
       d="m 5.3441641,6.0134608 h 0.1710098 c 0.018829,0 0.033987,0.018497 0.033987,0.041475 0,0.022977 -0.015158,0.041475 -0.033987,0.041475 H 5.3441641 c -0.018829,0 -0.033987,-0.018498 -0.033987,-0.041475 0,-0.022977 0.015158,-0.041475 0.033987,-0.041475 z" /><path
       id="path39038"
       style="font-variation-settings:'wght' 700;fill:#5c70d5;stroke:#adb7ea;stroke-width:0.232469;stroke-linecap:round;paint-order:fill markers stroke"
       d="m 5.8626041,6.0307659 h 0.5082006 c 0.010972,0 0.019807,0.010779 0.019807,0.024169 0,0.01339 -0.00883,0.024169 -0.019807,0.024169 H 5.8626041 c -0.010973,0 -0.019807,-0.010779 -0.019807,-0.024169 0,-0.01339 0.00883,-0.024169 0.019807,-0.024169 z" /><path
       id="path39040"
       style="font-variation-settings:'wght' 700;fill:none;stroke:#5c70d5;stroke-width:0.232469;stroke-linecap:round;stroke-opacity:1;paint-order:fill markers stroke"
       d="m 6.9919397,6.0791047 -0.1945722,2e-7 c -0.010972,0 -0.019807,-0.010779 -0.019807,-0.02417 0,-0.01339 0.00883,-0.02417 0.019807,-0.02417 v 0 h 0.1945723"
       sodipodi:nodetypes="cssscc" /><path
       id="path39042"
       style="font-variation-settings:'wght' 700;fill:#adb7ea;stroke:#adb7ea;stroke-width:0.228097;stroke-linecap:round;paint-order:fill markers stroke"
       d="M 5.3426489,6.4997271 H 5.95593 c 0.00973,0 0.017568,0.00956 0.017568,0.021438 v 0.023872 c 0,0.011876 -0.00784,0.021438 -0.017568,0.021438 H 5.3426489 c -0.00973,0 -0.017568,-0.00956 -0.017568,-0.021438 v -0.023872 c 0,-0.011877 0.00784,-0.021438 0.017568,-0.021438 z" /></g><g
     inkscape:label="Capa 1"
     inkscape:groupmode="layer"
     id="layer1"><path
       style="font-variation-settings:'wght' 700;fill:none;stroke:#293da2;stroke-width:0.119062;stroke-linecap:round;stroke-dasharray:none;stroke-opacity:1;paint-order:fill markers stroke"
       d="M 5.7364714,6.9128527 H 6.5141535"
       id="path9851" /><path
       style="font-variation-settings:'wght' 700;fill:none;stroke:#293da2;stroke-width:0.119062;stroke-linecap:round;stroke-dasharray:none;stroke-opacity:1;paint-order:fill markers stroke"
       d="M 5.3920101,3.5149524 H 6.8586148"
       id="path11309" /><path
       id="rect12765"
       style="font-variation-settings:'wght' 700;fill:none;stroke:#141e4f;stroke-width:0.159761;stroke-linecap:round;stroke-dasharray:none;stroke-opacity:1;paint-order:fill markers stroke"
       d="m 4.7544781,6.9164936 h -3.328805 c -0.094146,0 -0.1699395,-0.075793 -0.1699395,-0.1699395 V 1.0561043 c 0,-0.0941464 0.075793,-0.16993946 0.1699395,-0.16993946 v 0 h 4.5206176 c 0.094146,0 0.1699394,0.0757931 0.1699394,0.16993946 v 1.9577589"
       sodipodi:nodetypes="csssscssc" /><path
       style="font-variation-settings:'wght' 700;fill:none;stroke:#293da2;stroke-width:0.119062;stroke-linecap:round;stroke-dasharray:none;stroke-opacity:1;paint-order:fill markers stroke"
       d="M 2.9526795,6.4319167 H 4.4192842"
       id="path14219" /><path
       style="font-variation-settings:'wght' 700;fill:none;stroke:#293da2;stroke-width:0.119062;stroke-linecap:round;stroke-dasharray:none;stroke-opacity:1;paint-order:fill markers stroke"
       d="M 2.0043127,1.3404882 H 5.367651"
       id="path14221" /><rect
       style="font-variation-settings:'wght' 700;fill:none;stroke:#141e4f;stroke-width:0.171979;stroke-linecap:square;stroke-dasharray:none;stroke-opacity:1;paint-order:fill markers stroke"
       id="rect7978"
       width="2.6501353"
       height="4.2880087"
       x="4.8002448"
       y="3.047796"
       ry="0.25633928" /></g><g
     inkscape:groupmode="layer"
     id="layer3"
     inkscape:label="Capa 2"><path
       style="font-variation-settings:'wght' 700;fill:none;stroke:#141e4f;stroke-width:0.278599;stroke-linecap:round;stroke-dasharray:none;stroke-opacity:1;paint-order:fill markers stroke"
       d="m 3.5352523,1.8030134 0.3764236,0.477295 -0.3764236,0.492057"
       id="path20107"
       sodipodi:nodetypes="ccc" /><path
       style="font-variation-settings:'wght' 700;fill:none;stroke:#141e4f;stroke-width:0.171905;stroke-linecap:round;stroke-dasharray:none;stroke-opacity:1;paint-order:fill markers stroke"
       d="M 5.7892518,3.8090572 5.6242177,4.018316 5.7892518,4.2340469"
       id="path16461"
       sodipodi:nodetypes="ccc" /><path
       style="font-variation-settings:'wght' 700;fill:none;stroke:#141e4f;stroke-width:0.171905;stroke-linecap:round;stroke-dasharray:none;stroke-opacity:1;paint-order:fill markers stroke"
       d="M 6.4661721,3.8090572 6.6312062,4.018316 6.4661721,4.2340469"
       id="path16463"
       sodipodi:nodetypes="ccc" /><path
       style="font-variation-settings:'wght' 700;fill:none;stroke:#141e4f;stroke-width:0.171905;stroke-linecap:round;stroke-dasharray:none;stroke-opacity:1;paint-order:fill markers stroke"
       d="M 6.0321807,4.2386485 6.2243289,3.8044556"
       id="path16465" /><path
       style="font-variation-settings:'wght' 700;fill:none;stroke:#141e4f;stroke-width:0.278599;stroke-linecap:round;stroke-dasharray:none;stroke-opacity:1;paint-order:fill markers stroke"
       d="m 2.3168128,1.8030134 -0.3764236,0.477295 0.3764236,0.492057"
       id="path20105"
       sodipodi:nodetypes="ccc" /><path
       style="font-variation-settings:'wght' 700;fill:none;stroke:#141e4f;stroke-width:0.278599;stroke-linecap:round;stroke-dasharray:none;stroke-opacity:1;paint-order:fill markers stroke"
       d="M 2.7194927,2.7828611 3.1577604,1.7925178"
       id="path20109" /></g></svg>
